<svg width="823" height="1061" viewBox="0 0 823 1061" fill="none" xmlns="http://www.w3.org/2000/svg">
<path d="M101 1.5V135.257C101 136.053 101.316 136.816 101.879 137.379L181.121 216.621C181.684 217.184 182 217.947 182 218.743V253.5" stroke="#326BA4" stroke-width="3"/>
<path d="M120.5 46.5V129.257C120.5 130.053 120.816 130.816 121.379 131.379L140.621 150.621C141.184 151.184 141.947 151.5 142.743 151.5H171.757C172.553 151.5 173.316 151.816 173.879 152.379L221.621 200.121C222.184 200.684 222.5 201.447 222.5 202.243V246" stroke="#326BA4" stroke-width="3"/>
<path d="M77 76.5V144.257C77 145.053 77.3161 145.816 77.8787 146.379L163.121 231.621C163.684 232.184 164 232.947 164 233.743V306" stroke="#326BA4" stroke-width="3"/>
<path d="M171.5 183C180.5 191.5 198.5 208.8 198.5 210C198.5 211.2 198.5 263.5 198.5 289.5" stroke="#326BA4" stroke-width="3"/>
<circle cx="9" cy="9" r="7.5" transform="matrix(-1 0 0 1 753.5 7.5)" stroke="#326BA4" stroke-width="3"/>
<circle cx="9" cy="9" r="7.5" transform="matrix(-1 0 0 1 804.5 1.5)" stroke="#326BA4" stroke-width="3"/>
<circle cx="9" cy="9" r="7.5" transform="matrix(-1 0 0 1 696.5 304.5)" stroke="#326BA4" stroke-width="3"/>
<circle cx="9" cy="9" r="7.5" transform="matrix(-1 0 0 1 771.5 310.5)" stroke="#326BA4" stroke-width="3"/>
<circle cx="9" cy="9" r="7.5" transform="matrix(-1 0 0 1 672.5 214.5)" stroke="#326BA4" stroke-width="3"/>
<circle cx="9" cy="9" r="7.5" transform="matrix(-1 0 0 1 774.5 151.5)" stroke="#326BA4" stroke-width="3"/>
<circle cx="9" cy="9" r="7.5" transform="matrix(-1 0 0 1 585.5 328.5)" stroke="#326BA4" stroke-width="3"/>
<circle cx="9" cy="9" r="7.5" transform="matrix(-1 0 0 1 573.5 286.5)" stroke="#326BA4" stroke-width="3"/>
<circle cx="9" cy="9" r="7.5" transform="matrix(-1 0 0 1 525.5 328.5)" stroke="#326BA4" stroke-width="3"/>
<circle cx="9" cy="9" r="7.5" transform="matrix(-1 0 0 1 402.5 379.5)" stroke="#326BA4" stroke-width="3"/>
<circle cx="9" cy="9" r="7.5" transform="matrix(-1 0 0 1 300.5 352.5)" stroke="#326BA4" stroke-width="3"/>
<circle cx="9" cy="9" r="7.5" transform="matrix(-1 0 0 1 231.5 244.5)" stroke="#326BA4" stroke-width="3"/>
<circle cx="9" cy="9" r="7.5" transform="matrix(-1 0 0 1 207.5 286.5)" stroke="#326BA4" stroke-width="3"/>
<circle cx="9" cy="9" r="7.5" transform="matrix(-1 0 0 1 189.5 250.5)" stroke="#326BA4" stroke-width="3"/>
<circle cx="9" cy="9" r="7.5" transform="matrix(-1 0 0 1 234.5 271.5)" stroke="#326BA4" stroke-width="3"/>
<circle cx="9" cy="9" r="7.5" transform="matrix(-1 0 0 1 192.5 325.5)" stroke="#326BA4" stroke-width="3"/>
<circle cx="9" cy="9" r="7.5" transform="matrix(-1 0 0 1 108.5 211.5)" stroke="#326BA4" stroke-width="3"/>
<circle cx="9" cy="9" r="7.5" transform="matrix(-1 0 0 1 567.5 226.5)" stroke="#326BA4" stroke-width="3"/>
<circle cx="9" cy="9" r="7.5" transform="matrix(-1 0 0 1 462.5 124.5)" stroke="#326BA4" stroke-width="3"/>
<circle cx="9" cy="9" r="7.5" transform="matrix(-1 0 0 1 537.5 94.5)" stroke="#326BA4" stroke-width="3"/>
<circle cx="9" cy="9" r="7.5" transform="matrix(-1 0 0 1 381.5 22.5)" stroke="#326BA4" stroke-width="3"/>
<circle cx="9" cy="9" r="7.5" transform="matrix(-1 0 0 1 447.5 295.5)" stroke="#326BA4" stroke-width="3"/>
<circle cx="9" cy="9" r="7.5" transform="matrix(-1 0 0 1 270.5 202.5)" stroke="#326BA4" stroke-width="3"/>
<circle cx="9" cy="9" r="9" transform="matrix(-1 0 0 1 597.5 481.5)" fill="#326BA4"/>
<circle cx="9" cy="9" r="7.5" transform="matrix(-1 0 0 1 600.5 460.5)" stroke="#326BA4" stroke-width="3"/>
<circle cx="9" cy="9" r="9" transform="matrix(-1 0 0 1 567.5 445.5)" fill="#326BA4"/>
<circle cx="9" cy="9" r="9" transform="matrix(-1 0 0 1 612.5 325.5)" fill="#326BA4"/>
<circle cx="9" cy="9" r="9" transform="matrix(-1 0 0 1 786.5 358.5)" fill="#326BA4"/>
<circle cx="9" cy="9" r="9" transform="matrix(-1 0 0 1 729.5 298.5)" fill="#326BA4"/>
<circle cx="9" cy="9" r="9" transform="matrix(-1 0 0 1 795.5 55.5)" fill="#326BA4"/>
<circle cx="9" cy="9" r="9" transform="matrix(-1 0 0 1 810.5 67.5)" fill="#326BA4"/>
<circle cx="9" cy="9" r="9" transform="matrix(-1 0 0 1 492.5 97.5)" fill="#326BA4"/>
<circle cx="9" cy="9" r="9" transform="matrix(-1 0 0 1 381.5 1.5)" fill="#326BA4"/>
<circle cx="9" cy="9" r="9" transform="matrix(-1 0 0 1 426.5 139.5)" fill="#326BA4"/>
<circle cx="9" cy="9" r="9" transform="matrix(-1 0 0 1 393.5 217.5)" fill="#326BA4"/>
<circle cx="9" cy="9" r="9" transform="matrix(-1 0 0 1 453.5 316.5)" fill="#326BA4"/>
<circle cx="9" cy="9" r="9" transform="matrix(-1 0 0 1 273.5 169.5)" fill="#326BA4"/>
<circle cx="9" cy="9" r="9" transform="matrix(-1 0 0 1 177.5 169.5)" fill="#326BA4"/>
<circle cx="9" cy="9" r="9" transform="matrix(-1 0 0 1 87.5 61.5)" fill="#326BA4"/>
<circle cx="9" cy="9" r="9" transform="matrix(-1 0 0 1 225.5 28.5)" fill="#326BA4"/>
<circle cx="9" cy="9" r="9" transform="matrix(-1 0 0 1 135.5 358.5)" fill="#326BA4"/>
<circle cx="9" cy="9" r="9" transform="matrix(-1 0 0 1 81.5 379.5)" fill="#326BA4"/>
<circle cx="9" cy="9" r="9" transform="matrix(-1 0 0 1 174.5 466.5)" fill="#326BA4"/>
<circle cx="9" cy="9" r="9" transform="matrix(-1 0 0 1 219.5 496.5)" fill="#326BA4"/>
<circle cx="9" cy="9" r="9" transform="matrix(-1 0 0 1 246.5 529.5)" fill="#326BA4"/>
<circle cx="9" cy="9" r="9" transform="matrix(-1 0 0 1 420.5 508.5)" fill="#326BA4"/>
<circle cx="9" cy="9" r="9" transform="matrix(-1 0 0 1 300.5 475.5)" fill="#326BA4"/>
<circle cx="9" cy="9" r="9" transform="matrix(-1 0 0 1 330.5 535.5)" fill="#326BA4"/>
<circle cx="9" cy="9" r="9" transform="matrix(-1 0 0 1 336.5 412.5)" fill="#326BA4"/>
<circle cx="9" cy="9" r="9" transform="matrix(-1 0 0 1 666.5 550.5)" fill="#326BA4"/>
<circle cx="9" cy="9" r="9" transform="matrix(-1 0 0 1 438.5 586.5)" fill="#326BA4"/>
<circle cx="9" cy="9" r="9" transform="matrix(-1 0 0 1 405.5 553.5)" fill="#326BA4"/>
<circle cx="9" cy="9" r="9" transform="matrix(-1 0 0 1 492.5 517.5)" fill="#326BA4"/>
<circle cx="9" cy="9" r="9" transform="matrix(-1 0 0 1 564.5 667.5)" fill="#326BA4"/>
<circle cx="9" cy="9" r="9" transform="matrix(-1 0 0 1 606.5 625.5)" fill="#326BA4"/>
<path d="M819.5 964.5H783.243C782.447 964.5 781.684 964.184 781.121 963.621L725.879 908.379C725.316 907.816 725 907.053 725 906.257V854.743C725 853.947 724.684 853.184 724.121 852.621L585.5 714" stroke="#326BA4" stroke-width="3"/>
<path d="M690.5 715.5L707.621 732.621C708.184 733.184 708.5 733.947 708.5 734.743V783.257C708.5 784.053 708.816 784.816 709.379 785.379L755.621 831.621C756.184 832.184 756.5 832.947 756.5 833.743V894" stroke="#326BA4" stroke-width="3"/>
<circle cx="9" cy="9" r="9" transform="matrix(-1 0 0 1 666.5 694.5)" fill="#326BA4"/>
<circle cx="9" cy="9" r="9" transform="matrix(-1 0 0 1 690.5 679.5)" fill="#326BA4"/>
<path d="M662 709.5L692.621 740.121C693.184 740.684 693.5 741.447 693.5 742.243V790.757C693.5 791.553 693.816 792.316 694.379 792.879L740.621 839.121C741.184 839.684 741.5 840.447 741.5 841.243V868.5" stroke="#326BA4" stroke-width="3"/>
<path d="M698 670.5H651.243C650.447 670.5 649.684 670.816 649.121 671.379L625.121 695.379C623.95 696.55 623.95 698.45 625.121 699.621L665 739.5" stroke="#326BA4" stroke-width="3"/>
<path d="M821 760.5H790.743C789.947 760.5 789.184 760.184 788.621 759.621L719.879 690.879C719.316 690.316 718.553 690 717.757 690H681.5" stroke="#326BA4" stroke-width="3"/>
<path d="M546.5 711.564V774.298C546.5 776.965 543.281 778.306 541.387 776.428L485.887 721.372C485.319 720.809 485 720.042 485 719.242V651.806C485 651.006 484.681 650.239 484.113 649.676L429.5 595.5" stroke="#326BA4" stroke-width="3"/>
<path d="M450.5 577.5L512.621 639.621C513.184 640.184 513.5 640.947 513.5 641.743V715.5" stroke="#326BA4" stroke-width="3"/>
<path d="M819.5 742.5H802.743C801.947 742.5 801.184 742.184 800.621 741.621L700.379 641.379C699.816 640.816 699.053 640.5 698.257 640.5H654.243C653.447 640.5 652.684 640.816 652.121 641.379L617.879 675.621C617.316 676.184 616.553 676.5 615.757 676.5H555.5" stroke="#326BA4" stroke-width="3"/>
<path d="M821 703.5L716.879 599.379C716.316 598.816 715.553 598.5 714.757 598.5H563" stroke="#326BA4" stroke-width="3"/>
<path d="M822.5 654L692.879 524.379C692.316 523.816 691.553 523.5 690.757 523.5H531.243C530.447 523.5 529.684 523.184 529.121 522.621L399.5 393" stroke="#326BA4" stroke-width="3"/>
<path d="M657.5 559.5H480.243C477.57 559.5 476.231 562.731 478.121 564.621L548.621 635.121C549.184 635.684 549.947 636 550.743 636H593" stroke="#326BA4" stroke-width="3"/>
<path d="M819.5 556.5L718.379 455.379C717.816 454.816 717.053 454.5 716.257 454.5H564.5" stroke="#326BA4" stroke-width="3"/>
<path d="M731 490.5L710.879 470.379C710.316 469.816 709.553 469.5 708.757 469.5H599" stroke="#326BA4" stroke-width="3"/>
<path d="M627.5 427.5H499.141C496.559 427.5 495.183 430.545 496.89 432.483L547.104 489.483C547.674 490.13 548.494 490.5 549.355 490.5H584" stroke="#326BA4" stroke-width="3"/>
<path d="M447.5 613.5H411.243C410.447 613.5 409.684 613.184 409.121 612.621L367.379 570.879C366.816 570.316 366.053 570 365.257 570H344" stroke="#326BA4" stroke-width="3"/>
<path d="M327.5 546H377.257C378.053 546 378.816 546.316 379.379 546.879L396.5 564" stroke="#326BA4" stroke-width="3"/>
<path d="M482 528H448.743C447.947 528 447.184 527.684 446.621 527.121L379.379 459.879C378.816 459.316 378.053 459 377.257 459H354.5" stroke="#326BA4" stroke-width="3"/>
<path d="M333.5 423H374.257C375.053 423 375.816 423.316 376.379 423.879L409.121 456.621C409.684 457.184 410 457.947 410 458.743V489" stroke="#326BA4" stroke-width="3"/>
<path d="M297.5 484.5H374.257C375.053 484.5 375.816 484.816 376.379 485.379L410 519" stroke="#326BA4" stroke-width="3"/>
<path d="M822.5 480L611.894 272.381C611.322 271.817 611 271.048 611 270.245V106.243C611 105.447 610.684 104.684 610.121 104.121L507.5 1.5" stroke="#326BA4" stroke-width="3"/>
<path d="M720.5 0V301.5" stroke="#326BA4" stroke-width="3"/>
<path d="M696.5 1.5V88.7574C696.5 89.553 696.184 90.3161 695.621 90.8787L673.379 113.121C672.816 113.684 672.5 114.447 672.5 115.243V186.257C672.5 187.053 672.816 187.816 673.379 188.379L686.621 201.621C687.184 202.184 687.5 202.947 687.5 203.743V307.5" stroke="#326BA4" stroke-width="3"/>
<path d="M663.5 3V217.5" stroke="#326BA4" stroke-width="3"/>
<path d="M753.5 16.5H782.257C783.053 16.5 783.816 16.8161 784.379 17.3787L796.121 29.1213C796.684 29.6839 797 30.447 797 31.2426V46.5" stroke="#326BA4" stroke-width="3"/>
<path d="M800 16.5L812.621 29.1213C813.184 29.6839 813.5 30.447 813.5 31.2426V43.5" stroke="#326BA4" stroke-width="3"/>
<path d="M783.5 70.5L752.879 101.121C752.316 101.684 752 102.447 752 103.243V133.757C752 134.553 752.316 135.316 752.879 135.879L763.121 146.121C763.684 146.684 764 147.447 764 148.243V154.5" stroke="#326BA4" stroke-width="3"/>
<path d="M795.5 81C793.167 82.1663 774.586 101.376 764.823 111.635C764.293 112.192 764 112.929 764 113.698V151.5" stroke="#326BA4" stroke-width="3"/>
<path d="M821 78L779.879 119.121C779.316 119.684 779 120.447 779 121.243V171M779 360V171M779 171L752.879 197.121C752.316 197.684 752 198.447 752 199.243V253.757C752 254.553 752.316 255.316 752.879 255.879L763.121 266.121C763.684 266.684 764 267.447 764 268.243V313.5" stroke="#326BA4" stroke-width="3"/>
<path d="M677 1059L623.879 1005.88C623.316 1005.32 623 1004.55 623 1003.76V908.743C623 907.947 622.684 907.184 622.121 906.621L506 790.5" stroke="#326BA4" stroke-width="3"/>
<path d="M731 1057.5L667.379 993.879C666.816 993.316 666.5 992.553 666.5 991.757V898.243C666.5 897.447 666.184 896.684 665.621 896.121L597.5 828" stroke="#326BA4" stroke-width="3"/>
<path d="M759.5 1047L695.879 983.379C695.316 982.816 695 982.053 695 981.257V887.743C695 886.947 694.684 886.184 694.121 885.621L626 817.5" stroke="#326BA4" stroke-width="3"/>
<path d="M462.5 1.5L580.121 119.121C580.684 119.684 581 120.447 581 121.243V195.257C581 197.93 577.769 199.269 575.879 197.379L489.5 111" stroke="#326BA4" stroke-width="3"/>
<path d="M378.5 31.5H453.757C454.553 31.5 455.316 31.8161 455.879 32.3787L522.5 99" stroke="#326BA4" stroke-width="3"/>
<path d="M426.5 1.5L430.379 5.37868C432.269 7.26858 430.93 10.5 428.257 10.5H380" stroke="#326BA4" stroke-width="3"/>
<path d="M321.5 1.5L421.379 101.379C423.269 103.269 421.93 106.5 419.257 106.5H382.743C381.947 106.5 381.184 106.184 380.621 105.621L313.379 38.3787C312.816 37.8161 312.053 37.5 311.257 37.5H222.5" stroke="#326BA4" stroke-width="3"/>
<path d="M459.5 136.5L554 231" stroke="#326BA4" stroke-width="3"/>
<path d="M423.5 153L560 289.5" stroke="#326BA4" stroke-width="3"/>
<path d="M423.5 199.5L523.379 299.379C525.269 301.269 523.93 304.5 521.257 304.5H446" stroke="#326BA4" stroke-width="3"/>
<path d="M152 1.5V52.7574C152 53.553 152.316 54.3161 152.879 54.8787L193.121 95.1213C193.684 95.6839 194.447 96 195.243 96H312.757C313.553 96 314.316 96.3161 314.879 96.8787L378.5 160.5" stroke="#326BA4" stroke-width="3"/>
<path d="M185 141H297.757C298.553 141 299.316 141.316 299.879 141.879L380 222" stroke="#326BA4" stroke-width="3"/>
<path d="M606.5 339L659.879 392.379C661.769 394.269 660.43 397.5 657.757 397.5H547.743C546.947 397.5 546.184 397.184 545.621 396.621L476.879 327.879C476.316 327.316 475.553 327 474.757 327H452" stroke="#326BA4" stroke-width="3"/>
<path d="M582.5 342L611.879 371.379C613.769 373.269 612.43 376.5 609.757 376.5H556.743C555.947 376.5 555.184 376.184 554.621 375.621L521 342" stroke="#326BA4" stroke-width="3"/>
<path d="M270.5 181.5L293.621 204.621C294.184 205.184 294.5 205.947 294.5 206.743V303.257C294.5 304.053 294.816 304.816 295.379 305.379L320.621 330.621C321.184 331.184 321.947 331.5 322.743 331.5H399.757C400.553 331.5 401.316 331.816 401.879 332.379L471.5 402" stroke="#326BA4" stroke-width="3"/>
<path d="M261.5 220.5V403.757C261.5 404.553 261.184 405.316 260.621 405.879L211.379 455.121C210.816 455.684 210.5 456.447 210.5 457.243V496.5" stroke="#326BA4" stroke-width="3"/>
<path d="M291.5 370.5V415.323C291.5 416.123 291.18 416.89 290.612 417.454L238.388 469.198C237.82 469.761 237.5 470.528 237.5 471.329V532.5" stroke="#326BA4" stroke-width="3"/>
<path d="M2 0V217.757C2 218.553 2.31607 219.316 2.87868 219.879L73.1213 290.121C73.6839 290.684 74 291.447 74 292.243V384" stroke="#326BA4" stroke-width="3"/>
<circle cx="9" cy="9" r="7.5" transform="matrix(-1 0 0 1 66.5 190.5)" stroke="#326BA4" stroke-width="3"/>
<circle cx="9" cy="9" r="7.5" transform="matrix(-1 0 0 1 129.5 28.5)" stroke="#326BA4" stroke-width="3"/>
<path d="M59 1.5V147.257C59 148.053 59.3161 148.816 59.8787 149.379L143.621 233.121C144.184 233.684 144.5 234.447 144.5 235.243V432" stroke="#326BA4" stroke-width="3"/>
<path d="M59 66L41.8787 83.1213C41.3161 83.6839 41 84.447 41 85.2426V159.257C41 160.053 41.3161 160.816 41.8787 161.379L71.6213 191.121C72.1839 191.684 72.5 192.447 72.5 193.243V216.257C72.5 217.053 72.8161 217.816 73.3787 218.379L103.121 248.121C103.684 248.684 104 249.447 104 250.243V261.257C104 262.053 104.316 262.816 104.879 263.379L116.879 275.379C118.769 277.269 122 275.93 122 273.257V245.743C122 244.947 121.684 244.184 121.121 243.621L104 226.5" stroke="#326BA4" stroke-width="3"/>
<path d="M72.5 217.5L60.5 205.5" stroke="#326BA4" stroke-width="3"/>
<path d="M122 247.5V345.257C122 346.053 121.684 346.816 121.121 347.379L104.879 363.621C104.316 364.184 104 364.947 104 365.743V457.5" stroke="#326BA4" stroke-width="3"/>
<path d="M123.5 373.5L118.17 380.068C117.737 380.603 117.5 381.27 117.5 381.958V478.5" stroke="#326BA4" stroke-width="3"/>
<path d="M225.5 286.5V315.257C225.5 316.053 225.184 316.816 224.621 317.379L202.379 339.621C201.816 340.184 201.5 340.947 201.5 341.743V384.257C201.5 385.053 201.184 385.816 200.621 386.379L166.379 420.621C165.816 421.184 165.5 421.947 165.5 422.743V468V398.743C165.5 397.947 165.816 397.184 166.379 396.621L184.121 378.879C184.684 378.316 185 377.553 185 376.757V340.5" stroke="#326BA4" stroke-width="3"/>
<circle cx="9" cy="9" r="9" transform="matrix(-1 0 0 1 126.5 478.5)" fill="#326BA4"/>
<circle cx="9" cy="9" r="9" transform="matrix(-1 0 0 1 510.5 778.5)" fill="#326BA4"/>
<circle cx="9" cy="9" r="9" transform="matrix(-1 0 0 1 633.5 805.5)" fill="#326BA4"/>
<circle cx="9" cy="9" r="9" transform="matrix(-1 0 0 1 555.5 697.5)" fill="#326BA4"/>
<circle cx="9" cy="9" r="9" transform="matrix(-1 0 0 1 591.5 703.5)" fill="#326BA4"/>
<circle cx="9" cy="9" r="9" transform="matrix(-1 0 0 1 765.5 889.5)" fill="#326BA4"/>
<circle cx="9" cy="9" r="7.5" transform="matrix(-1 0 0 1 522.5 712.5)" stroke="#326BA4" stroke-width="3"/>
<circle cx="9" cy="9" r="7.5" transform="matrix(-1 0 0 1 600.5 814.5)" stroke="#326BA4" stroke-width="3"/>
<circle cx="9" cy="9" r="7.5" transform="matrix(-1 0 0 1 750.5 865.5)" stroke="#326BA4" stroke-width="3"/>
<circle cx="9" cy="9" r="7.5" transform="matrix(-1 0 0 1 714.5 661.5)" stroke="#326BA4" stroke-width="3"/>
<circle cx="9" cy="9" r="7.5" transform="matrix(-1 0 0 1 693.5 700.5)" stroke="#326BA4" stroke-width="3"/>
<circle cx="9" cy="9" r="7.5" transform="matrix(-1 0 0 1 681.5 733.5)" stroke="#326BA4" stroke-width="3"/>
<circle cx="9" cy="9" r="7.5" transform="matrix(-1 0 0 1 564.5 589.5)" stroke="#326BA4" stroke-width="3"/>
<circle cx="9" cy="9" r="7.5" transform="matrix(-1 0 0 1 453.5 565.5)" stroke="#326BA4" stroke-width="3"/>
<circle cx="9" cy="9" r="7.5" transform="matrix(-1 0 0 1 345.5 562.5)" stroke="#326BA4" stroke-width="3"/>
<circle cx="9" cy="9" r="7.5" transform="matrix(-1 0 0 1 357.5 448.5)" stroke="#326BA4" stroke-width="3"/>
</svg>
